# xmcd
#
# Track frame offsets:
#	150
#	12559
#	22942
#	35540
#	49055
#	63422
#	74617
#	88065
#	101529
#	114815
#	131830
#	143565
#	158480
#	169765
#	180625
#	192852
#	204452
#	215497
#	230747
#	244445
#	256597
#	266690
#	278772
#	293935
#	304767
#	321677
#	329792
#
# Disc length: 4520 seconds
# Revision: 4
# Processed by: cddbd v1.5.2PL0 Copyright (c) Steve Scherf et al.
# Submitted via: dBpowerAMP V12.0
#
DISCID=9911a61b
DTITLE=Various Artist - Take Me Home, Country Roads (Welcome To My World)
DYEAR=2002
DGENRE=Country
TTITLE0=Lynn Anderson - Listen To A Country Song
TTITLE1=Mel Mc Daniel - Louisiana Saturday Night
TTITLE2=Wylon Jennings - I'm A Ramblin Man
TTITLE3=Glen Campbell - Rhinestone Cowboy
TTITLE4=Merle Haggard - Branded Man
TTITLE5=Pam Gadd - Sittin' On Top Of The World
TTITLE6=Billie Jo Spears - Fever
TTITLE7=Bobby Bare - The All American Boy
TTITLE8=Conway Twitty - Danny Boy
TTITLE9=Billy Troy - Frankie And Johnny
TTITLE10=Patsy Cline - Walkin' After Midnight
TTITLE11=The Kingston Trio - Tom Dooley
TTITLE12=Ray Price - Crazy Arms
TTITLE13=Jim Reeves - Welcome To My World
TTITLE14=Frankie Laine - Do Not Forsake Me
TTITLE15=Eddy Arnold - Bouquet Of Roses
TTITLE16=Conway Twitty - As Soon As I Hang Up The Phone
TTITLE17=Billie Jo Spears - Blanket On The Ground
TTITLE18=Mel McDaniel - Baby's Got Blue Eyes
TTITLE19=Waylon Jennings - Don't Think Twice, It's Alright
TTITLE20=Pat Boone - Dust On The Bible
TTITLE21=Merle Haggard - Things Aren't Funny Anymore
TTITLE22=Charlie Rich and Janie Fricke - On My Knees
TTITLE23=Roger Miller - Don't We All Have The Right
TTITLE24=Jerry Wallace - The Song Nobody Sings
TTITLE25=Roger Miller - Do-Wacka-Do
TTITLE26=Boots Randolph - Yakety Sax
EXTD=
EXTT0=
EXTT1=
EXTT2=
EXTT3=
EXTT4=
EXTT5=
EXTT6=
EXTT7=
EXTT8=
EXTT9=
EXTT10=
EXTT11=
EXTT12=
EXTT13=
EXTT14=
EXTT15=
EXTT16=
EXTT17=
EXTT18=
EXTT19=
EXTT20=
EXTT21=
EXTT22=
EXTT23=
EXTT24=
EXTT25=
EXTT26=
PLAYORDER=
